# xmcd CD database file
#
# Track frame offsets:
#	150
#	16872
#	31704
#	45348
#	61128
#	76075
#	91372
#	106381
#	122508
#	137623
#	152885
#	170035
#
# Disc length: 2525 seconds
#
# Revision: 0
# Processed by: cddbd v1.5.2PL0 Copyright (c) Steve Scherf et al.
# Submitted via: CDex 1.51
#
DISCID=8509db0c
DTITLE=Fausto Papetti - E se domani
DYEAR=2003
DGENRE=Jazz
TTITLE0=E se domani
TTITLE1=Historia de un amor
TTITLE2=Estate violenta
TTITLE3=Valzer del padrino
TTITLE4=Tema d'amore del film "Il padrino"
TTITLE5=La colegiala
TTITLE6=Reality
TTITLE7=Maria Elena
TTITLE8=Il dio serpente
TTITLE9=Aquarius
TTITLE10=Mare incantato
TTITLE11=Solamente tu
EXTD=YEAR: 2003
EXTT0=
EXTT1=
EXTT2=
EXTT3=
EXTT4=
EXTT5=
EXTT6=
EXTT7=
EXTT8=
EXTT9=
EXTT10=
EXTT11=
PLAYORDER=
